<?xml version="1.0" encoding="UTF-8" standalone="no"?>
<!-- Created with Inkscape (http://www.inkscape.org/) -->

<svg
   width="3.55in"
   height="6.0221601in"
   viewBox="0 0 90.170179 152.96317"
   version="1.1"
   id="svg1613"
   inkscape:version="1.3.2 (091e20ef0f, 2023-11-25)"
   sodipodi:docname="PresetArrayDiagram.svg"
   xmlns:inkscape="http://www.inkscape.org/namespaces/inkscape"
   xmlns:sodipodi="http://sodipodi.sourceforge.net/DTD/sodipodi-0.dtd"
   xmlns="http://www.w3.org/2000/svg"
   xmlns:svg="http://www.w3.org/2000/svg"
   xmlns:rdf="http://www.w3.org/1999/02/22-rdf-syntax-ns#"
   xmlns:cc="http://creativecommons.org/ns#"
   xmlns:dc="http://purl.org/dc/elements/1.1/">
  <sodipodi:namedview
     id="base"
     pagecolor="#eaeaea"
     bordercolor="#666666"
     borderopacity="1.0"
     inkscape:pageopacity="0.0"
     inkscape:pageshadow="2"
     inkscape:zoom="0.98994949"
     inkscape:cx="161.62441"
     inkscape:cy="411.13209"
     inkscape:document-units="mm"
     showgrid="false"
     units="in"
     inkscape:window-width="611"
     inkscape:window-height="2098"
     inkscape:window-x="2146"
     inkscape:window-y="36"
     inkscape:window-maximized="0"
     inkscape:showpageshadow="0"
     inkscape:pagecheckerboard="0"
     inkscape:deskcolor="#d1d1d1"
     inkscape:current-layer="layer2" />
  <defs
     id="defs1607" />
  <metadata
     id="metadata1610">
    <rdf:RDF>
      <cc:Work
         rdf:about="">
        <dc:format>image/svg+xml</dc:format>
        <dc:type
           rdf:resource="http://purl.org/dc/dcmitype/StillImage" />
      </cc:Work>
    </rdf:RDF>
  </metadata>
  <g
     inkscape:label="Layer 1"
     inkscape:groupmode="layer"
     id="layer1"
     transform="translate(-27.152248,-40.497806)">
    <g
       id="g69"
       transform="translate(-65.451392,50.885289)">
      <rect
         style="vector-effect:non-scaling-stroke;fill:#ff2f2f;fill-opacity:1;stroke-width:0.264583;stroke-linecap:round;-inkscape-stroke:hairline"
         id="rect17"
         width="4.1577382"
         height="4.1577382"
         x="105.20296"
         y="46.108036" />
      <rect
         style="vector-effect:non-scaling-stroke;fill:#ffaa2f;fill-opacity:1;stroke-width:0.264583;stroke-linecap:round;-inkscape-stroke:hairline"
         id="rect18"
         width="4.1577382"
         height="4.1577382"
         x="105.20296"
         y="51.224339" />
      <rect
         style="vector-effect:non-scaling-stroke;fill:#fff02f;fill-opacity:1;stroke-width:0.264583;stroke-linecap:round;-inkscape-stroke:hairline"
         id="rect19"
         width="4.1577382"
         height="4.1577382"
         x="105.20296"
         y="56.340641" />
      <rect
         style="vector-effect:non-scaling-stroke;fill:#85ff2f;fill-opacity:1;stroke-width:0.264583;stroke-linecap:round;-inkscape-stroke:hairline"
         id="rect20"
         width="4.1577382"
         height="4.1577382"
         x="105.20296"
         y="61.456944" />
      <rect
         style="vector-effect:non-scaling-stroke;fill:#2ffff8;fill-opacity:1;stroke-width:0.264583;stroke-linecap:round;-inkscape-stroke:hairline"
         id="rect21"
         width="4.1577382"
         height="4.1577382"
         x="105.20296"
         y="66.573235" />
      <rect
         style="vector-effect:non-scaling-stroke;fill:#4a2fff;fill-opacity:1;stroke-width:0.264583;stroke-linecap:round;-inkscape-stroke:hairline"
         id="rect22"
         width="4.1577382"
         height="4.1577382"
         x="105.20296"
         y="71.689537" />
      <rect
         style="vector-effect:non-scaling-stroke;fill:#f02fff;fill-opacity:1;stroke-width:0.264583;stroke-linecap:round;-inkscape-stroke:hairline"
         id="rect23"
         width="4.1577382"
         height="4.1577382"
         x="105.20296"
         y="76.80584" />
      <rect
         style="vector-effect:non-scaling-stroke;fill:#ff2f2f;fill-opacity:1;stroke-width:0.264583;stroke-linecap:round;-inkscape-stroke:hairline"
         id="rect24"
         width="4.1577382"
         height="4.1577382"
         x="105.20296"
         y="81.922142" />
    </g>
    <g
       id="g70"
       transform="translate(-68.622856,50.885289)">
      <rect
         style="vector-effect:non-scaling-stroke;fill:#ffaa2f;fill-opacity:1;stroke-width:0.264583;stroke-linecap:round;-inkscape-stroke:hairline"
         id="rect17-28"
         width="4.1577382"
         height="4.1577382"
         x="121.78391"
         y="46.108036" />
      <rect
         style="vector-effect:non-scaling-stroke;fill:#c1c1c1;fill-opacity:1;stroke-width:0.264583;stroke-linecap:round;-inkscape-stroke:hairline"
         id="rect18-9"
         width="4.1577382"
         height="4.1577382"
         x="121.78391"
         y="51.224339" />
      <rect
         style="vector-effect:non-scaling-stroke;fill:#fff02f;fill-opacity:1;stroke-width:0.264583;stroke-linecap:round;-inkscape-stroke:hairline"
         id="rect19-7"
         width="4.1577382"
         height="4.1577382"
         x="121.78391"
         y="56.340641" />
      <rect
         style="vector-effect:non-scaling-stroke;fill:#c1c1c1;fill-opacity:1;stroke-width:0.264583;stroke-linecap:round;-inkscape-stroke:hairline"
         id="rect20-36"
         width="4.1577382"
         height="4.1577382"
         x="121.78391"
         y="61.456944" />
      <rect
         style="vector-effect:non-scaling-stroke;fill:#85ff2f;fill-opacity:1;stroke-width:0.264583;stroke-linecap:round;-inkscape-stroke:hairline"
         id="rect21-1"
         width="4.1577382"
         height="4.1577382"
         x="121.78391"
         y="66.573227" />
      <rect
         style="vector-effect:non-scaling-stroke;fill:#c1c1c1;fill-opacity:1;stroke-width:0.264583;stroke-linecap:round;-inkscape-stroke:hairline"
         id="rect22-2"
         width="4.1577382"
         height="4.1577382"
         x="121.78391"
         y="71.689545" />
      <rect
         style="vector-effect:non-scaling-stroke;fill:#2ffff8;fill-opacity:1;stroke-width:0.264583;stroke-linecap:round;-inkscape-stroke:hairline"
         id="rect23-93"
         width="4.1577382"
         height="4.1577382"
         x="121.78391"
         y="76.805832" />
      <rect
         style="vector-effect:non-scaling-stroke;fill:#c1c1c1;fill-opacity:1;stroke-width:0.264583;stroke-linecap:round;-inkscape-stroke:hairline"
         id="rect24-1"
         width="4.1577382"
         height="4.1577382"
         x="121.78391"
         y="81.922134" />
    </g>
    <g
       id="g62"
       transform="translate(-1.0394348,1.3599439)">
      <rect
         style="vector-effect:non-scaling-stroke;fill:#a70000;fill-opacity:1;stroke-width:0.264583;stroke-linecap:round;-inkscape-stroke:hairline"
         id="rect1"
         width="4.1577382"
         height="4.1577382"
         x="40.791"
         y="46.108036" />
      <rect
         style="vector-effect:non-scaling-stroke;fill:#e50000;fill-opacity:1;stroke-width:0.264583;stroke-linecap:round;-inkscape-stroke:hairline"
         id="rect2"
         width="4.1577382"
         height="4.1577382"
         x="40.791"
         y="51.224339" />
      <rect
         style="vector-effect:non-scaling-stroke;fill:#900000;fill-opacity:1;stroke-width:0.264583;stroke-linecap:round;-inkscape-stroke:hairline"
         id="rect3"
         width="4.1577382"
         height="4.1577382"
         x="40.791"
         y="56.340641" />
      <rect
         style="vector-effect:non-scaling-stroke;fill:#ff2f2f;fill-opacity:1;stroke-width:0.264583;stroke-linecap:round;-inkscape-stroke:hairline"
         id="rect4"
         width="4.1577382"
         height="4.1577382"
         x="40.791"
         y="61.456944" />
      <rect
         style="vector-effect:non-scaling-stroke;fill:#c00000;fill-opacity:1;stroke-width:0.264583;stroke-linecap:round;-inkscape-stroke:hairline"
         id="rect5"
         width="4.1577382"
         height="4.1577382"
         x="40.791"
         y="66.573235" />
      <rect
         style="vector-effect:non-scaling-stroke;fill:#ff3535;fill-opacity:1;stroke-width:0.264583;stroke-linecap:round;-inkscape-stroke:hairline"
         id="rect6"
         width="4.1577382"
         height="4.1577382"
         x="40.791"
         y="71.689537" />
      <rect
         style="vector-effect:non-scaling-stroke;fill:#ffb02f;fill-opacity:1;stroke-width:0.264583;stroke-linecap:round;-inkscape-stroke:hairline"
         id="rect7"
         width="4.1577382"
         height="4.1577382"
         x="40.791"
         y="76.80584" />
      <rect
         style="vector-effect:non-scaling-stroke;fill:#ffe790;fill-opacity:1;stroke-width:0.264583;stroke-linecap:round;-inkscape-stroke:hairline"
         id="rect8"
         width="4.1577382"
         height="4.1577382"
         x="40.791"
         y="81.922142" />
      <rect
         style="vector-effect:non-scaling-stroke;fill:#a70000;fill-opacity:1;stroke-width:0.264583;stroke-linecap:round;-inkscape-stroke:hairline"
         id="rect25"
         width="4.1577382"
         height="4.1577382"
         x="40.791"
         y="46.108036" />
      <rect
         style="vector-effect:non-scaling-stroke;fill:#e50000;fill-opacity:1;stroke-width:0.264583;stroke-linecap:round;-inkscape-stroke:hairline"
         id="rect26"
         width="4.1577382"
         height="4.1577382"
         x="40.791"
         y="51.224339" />
      <rect
         style="vector-effect:non-scaling-stroke;fill:#900000;fill-opacity:1;stroke-width:0.264583;stroke-linecap:round;-inkscape-stroke:hairline"
         id="rect27"
         width="4.1577382"
         height="4.1577382"
         x="40.791"
         y="56.340641" />
      <rect
         style="vector-effect:non-scaling-stroke;fill:#ff2f2f;fill-opacity:1;stroke-width:0.264583;stroke-linecap:round;-inkscape-stroke:hairline"
         id="rect28"
         width="4.1577382"
         height="4.1577382"
         x="40.791"
         y="61.456944" />
      <rect
         style="vector-effect:non-scaling-stroke;fill:#c00000;fill-opacity:1;stroke-width:0.264583;stroke-linecap:round;-inkscape-stroke:hairline"
         id="rect29"
         width="4.1577382"
         height="4.1577382"
         x="40.791"
         y="66.573235" />
      <rect
         style="vector-effect:non-scaling-stroke;fill:#ff3535;fill-opacity:1;stroke-width:0.264583;stroke-linecap:round;-inkscape-stroke:hairline"
         id="rect30"
         width="4.1577382"
         height="4.1577382"
         x="40.791"
         y="71.689537" />
      <rect
         style="vector-effect:non-scaling-stroke;fill:#ffb02f;fill-opacity:1;stroke-width:0.264583;stroke-linecap:round;-inkscape-stroke:hairline"
         id="rect31"
         width="4.1577382"
         height="4.1577382"
         x="40.791"
         y="76.80584" />
      <rect
         style="vector-effect:non-scaling-stroke;fill:#ffe790;fill-opacity:1;stroke-width:0.264583;stroke-linecap:round;-inkscape-stroke:hairline"
         id="rect32"
         width="4.1577382"
         height="4.1577382"
         x="40.791"
         y="81.922142" />
    </g>
    <g
       id="g63"
       transform="translate(-1.6076924,-27.546606)">
      <rect
         style="vector-effect:non-scaling-stroke;fill:#27a600;fill-opacity:1;stroke-width:0.264583;stroke-linecap:round;-inkscape-stroke:hairline"
         id="rect1-3"
         width="4.1577382"
         height="4.1577382"
         x="54.768749"
         y="75.014587" />
      <rect
         style="vector-effect:non-scaling-stroke;fill:#35e400;fill-opacity:1;stroke-width:0.264583;stroke-linecap:round;-inkscape-stroke:hairline"
         id="rect2-6"
         width="4.1577382"
         height="4.1577382"
         x="54.768749"
         y="80.13089" />
      <rect
         style="vector-effect:non-scaling-stroke;fill:#219000;fill-opacity:1;stroke-width:0.264583;stroke-linecap:round;-inkscape-stroke:hairline"
         id="rect3-7"
         width="4.1577382"
         height="4.1577382"
         x="54.768749"
         y="85.247192" />
      <rect
         style="vector-effect:non-scaling-stroke;fill:#5fff2f;fill-opacity:1;stroke-width:0.264583;stroke-linecap:round;-inkscape-stroke:hairline"
         id="rect4-5"
         width="4.1577382"
         height="4.1577382"
         x="54.768749"
         y="90.363495" />
      <rect
         style="vector-effect:non-scaling-stroke;fill:#2dc000;fill-opacity:1;stroke-width:0.264583;stroke-linecap:round;-inkscape-stroke:hairline"
         id="rect5-3"
         width="4.1577382"
         height="4.1577382"
         x="54.768749"
         y="95.479782" />
      <rect
         style="vector-effect:non-scaling-stroke;fill:#64ff34;fill-opacity:1;stroke-width:0.264583;stroke-linecap:round;-inkscape-stroke:hairline"
         id="rect6-5"
         width="4.1577382"
         height="4.1577382"
         x="54.768749"
         y="100.59608" />
      <rect
         style="vector-effect:non-scaling-stroke;fill:#2fff7d;fill-opacity:1;stroke-width:0.264583;stroke-linecap:round;-inkscape-stroke:hairline"
         id="rect7-6"
         width="4.1577382"
         height="4.1577382"
         x="54.768749"
         y="105.71239" />
      <rect
         style="vector-effect:non-scaling-stroke;fill:#8ffecb;fill-opacity:1;stroke-width:0.264583;stroke-linecap:round;-inkscape-stroke:hairline"
         id="rect8-2"
         width="4.1577382"
         height="4.1577382"
         x="54.768749"
         y="110.82869" />
    </g>
    <g
       id="g71">
      <g
         id="g66"
         transform="translate(-20.771362,100.41065)">
        <rect
           style="vector-effect:non-scaling-stroke;fill:#514343;fill-opacity:1;stroke-width:0.264583;stroke-linecap:round;-inkscape-stroke:hairline"
           id="rect9"
           width="4.1577382"
           height="4.1577382"
           x="73.932419"
           y="46.108036" />
        <rect
           style="vector-effect:non-scaling-stroke;fill:#514343;fill-opacity:1;stroke-width:0.264583;stroke-linecap:round;-inkscape-stroke:hairline"
           id="rect10"
           width="4.1577382"
           height="4.1577382"
           x="73.932419"
           y="51.224339" />
        <rect
           style="vector-effect:non-scaling-stroke;fill:#ff2f2f;fill-opacity:1;stroke-width:0.264583;stroke-linecap:round;-inkscape-stroke:hairline"
           id="rect11"
           width="4.1577382"
           height="4.1577382"
           x="73.932419"
           y="56.340641" />
        <rect
           style="vector-effect:non-scaling-stroke;fill:#514343;fill-opacity:1;stroke-width:0.264583;stroke-linecap:round;-inkscape-stroke:hairline"
           id="rect12"
           width="4.1577382"
           height="4.1577382"
           x="73.932419"
           y="61.456944" />
        <rect
           style="vector-effect:non-scaling-stroke;fill:#514343;fill-opacity:1;stroke-width:0.264583;stroke-linecap:round;-inkscape-stroke:hairline"
           id="rect13"
           width="4.1577382"
           height="4.1577382"
           x="73.932419"
           y="66.573235" />
        <rect
           style="vector-effect:non-scaling-stroke;fill:#514343;fill-opacity:1;stroke-width:0.264583;stroke-linecap:round;-inkscape-stroke:hairline"
           id="rect14"
           width="4.1577382"
           height="4.1577382"
           x="73.932419"
           y="71.689537" />
        <rect
           style="vector-effect:non-scaling-stroke;fill:#ff2f2f;fill-opacity:1;stroke-width:0.264583;stroke-linecap:round;-inkscape-stroke:hairline"
           id="rect15"
           width="4.1577382"
           height="4.1577382"
           x="73.932419"
           y="76.80584" />
        <rect
           style="vector-effect:non-scaling-stroke;fill:#514343;fill-opacity:1;stroke-width:0.264583;stroke-linecap:round;-inkscape-stroke:hairline"
           id="rect16"
           width="4.1577382"
           height="4.1577382"
           x="73.932419"
           y="81.922142" />
      </g>
      <g
         id="g65"
         transform="translate(-34.180853,147.93089)">
        <rect
           style="vector-effect:non-scaling-stroke;fill:#514343;fill-opacity:1;stroke-width:0.264583;stroke-linecap:round;-inkscape-stroke:hairline"
           id="rect17-2"
           width="4.1577382"
           height="4.1577382"
           x="73.932419"
           y="-1.4122025" />
        <rect
           style="vector-effect:non-scaling-stroke;fill:#514343;fill-opacity:1;stroke-width:0.264583;stroke-linecap:round;-inkscape-stroke:hairline"
           id="rect18-0"
           width="4.1577382"
           height="4.1577382"
           x="73.932419"
           y="3.7041001" />
        <rect
           style="vector-effect:non-scaling-stroke;fill:#514343;fill-opacity:1;stroke-width:0.264583;stroke-linecap:round;-inkscape-stroke:hairline"
           id="rect19-2"
           width="4.1577382"
           height="4.1577382"
           x="73.932419"
           y="8.8204021" />
        <rect
           style="vector-effect:non-scaling-stroke;fill:#514343;fill-opacity:1;stroke-width:0.264583;stroke-linecap:round;-inkscape-stroke:hairline"
           id="rect20-3"
           width="4.1577382"
           height="4.1577382"
           x="73.932419"
           y="13.936705" />
        <rect
           style="vector-effect:non-scaling-stroke;fill:#514343;fill-opacity:1;stroke-width:0.264583;stroke-linecap:round;-inkscape-stroke:hairline"
           id="rect21-7"
           width="4.1577382"
           height="4.1577382"
           x="73.932419"
           y="19.052999" />
        <rect
           style="vector-effect:non-scaling-stroke;fill:#ff2f2f;fill-opacity:1;stroke-width:0.264583;stroke-linecap:round;-inkscape-stroke:hairline"
           id="rect22-5"
           width="4.1577382"
           height="4.1577382"
           x="73.932419"
           y="24.169302" />
        <rect
           style="vector-effect:non-scaling-stroke;fill:#514343;fill-opacity:1;stroke-width:0.264583;stroke-linecap:round;-inkscape-stroke:hairline"
           id="rect23-9"
           width="4.1577382"
           height="4.1577382"
           x="73.932419"
           y="29.285604" />
        <rect
           style="vector-effect:non-scaling-stroke;fill:#514343;fill-opacity:1;stroke-width:0.264583;stroke-linecap:round;-inkscape-stroke:hairline"
           id="rect24-2"
           width="4.1577382"
           height="4.1577382"
           x="73.932419"
           y="34.401909" />
      </g>
      <g
         id="g67"
         transform="translate(-7.4464084,55.375734)">
        <rect
           style="vector-effect:non-scaling-stroke;fill:#514343;fill-opacity:1;stroke-width:0.264583;stroke-linecap:round;-inkscape-stroke:hairline"
           id="rect55"
           width="4.1577382"
           height="4.1577382"
           x="73.932419"
           y="91.142952" />
        <rect
           style="vector-effect:non-scaling-stroke;fill:#ff2f2f;fill-opacity:1;stroke-width:0.264583;stroke-linecap:round;-inkscape-stroke:hairline"
           id="rect56"
           width="4.1577382"
           height="4.1577382"
           x="73.932419"
           y="96.259254" />
        <rect
           style="vector-effect:non-scaling-stroke;fill:#514343;fill-opacity:1;stroke-width:0.264583;stroke-linecap:round;-inkscape-stroke:hairline"
           id="rect57"
           width="4.1577382"
           height="4.1577382"
           x="73.932419"
           y="101.37556" />
        <rect
           style="vector-effect:non-scaling-stroke;fill:#ff2f2f;fill-opacity:1;stroke-width:0.264583;stroke-linecap:round;-inkscape-stroke:hairline"
           id="rect58"
           width="4.1577382"
           height="4.1577382"
           x="73.932419"
           y="106.49186" />
        <rect
           style="vector-effect:non-scaling-stroke;fill:#514343;fill-opacity:1;stroke-width:0.264583;stroke-linecap:round;-inkscape-stroke:hairline"
           id="rect59"
           width="4.1577382"
           height="4.1577382"
           x="73.932419"
           y="111.60815" />
        <rect
           style="vector-effect:non-scaling-stroke;fill:#ff2f2f;fill-opacity:1;stroke-width:0.264583;stroke-linecap:round;-inkscape-stroke:hairline"
           id="rect60"
           width="4.1577382"
           height="4.1577382"
           x="73.932419"
           y="116.72445" />
        <rect
           style="vector-effect:non-scaling-stroke;fill:#514343;fill-opacity:1;stroke-width:0.264583;stroke-linecap:round;-inkscape-stroke:hairline"
           id="rect61"
           width="4.1577382"
           height="4.1577382"
           x="73.932419"
           y="121.84075" />
        <rect
           style="vector-effect:non-scaling-stroke;fill:#ff2f2f;fill-opacity:1;stroke-width:0.264583;stroke-linecap:round;-inkscape-stroke:hairline"
           id="rect62"
           width="4.1577382"
           height="4.1577382"
           x="73.932419"
           y="126.95705" />
      </g>
      <g
         id="g68"
         transform="translate(6.047619,7.6744783)">
        <rect
           style="vector-effect:non-scaling-stroke;fill:#514343;fill-opacity:1;stroke-width:0.264583;stroke-linecap:round;-inkscape-stroke:hairline"
           id="rect55-6"
           width="4.1577382"
           height="4.1577382"
           x="73.932419"
           y="138.84421" />
        <rect
           style="vector-effect:non-scaling-stroke;fill:#5555ff;fill-opacity:1;stroke-width:0.264583;stroke-linecap:round;-inkscape-stroke:hairline"
           id="rect56-1"
           width="4.1577382"
           height="4.1577382"
           x="73.932419"
           y="143.96053" />
        <rect
           style="vector-effect:non-scaling-stroke;fill:#514343;fill-opacity:1;stroke-width:0.264583;stroke-linecap:round;-inkscape-stroke:hairline"
           id="rect57-0"
           width="4.1577382"
           height="4.1577382"
           x="73.932419"
           y="149.07683" />
        <rect
           style="vector-effect:non-scaling-stroke;fill:#5555ff;fill-opacity:1;stroke-width:0.264583;stroke-linecap:round;-inkscape-stroke:hairline"
           id="rect58-6"
           width="4.1577382"
           height="4.1577382"
           x="73.932419"
           y="154.19313" />
        <rect
           style="vector-effect:non-scaling-stroke;fill:#514343;fill-opacity:1;stroke-width:0.264583;stroke-linecap:round;-inkscape-stroke:hairline"
           id="rect59-3"
           width="4.1577382"
           height="4.1577382"
           x="73.932419"
           y="159.30942" />
        <rect
           style="vector-effect:non-scaling-stroke;fill:#5555ff;fill-opacity:1;stroke-width:0.264583;stroke-linecap:round;-inkscape-stroke:hairline"
           id="rect60-2"
           width="4.1577382"
           height="4.1577382"
           x="73.932419"
           y="164.42572" />
        <rect
           style="vector-effect:non-scaling-stroke;fill:#514343;fill-opacity:1;stroke-width:0.264583;stroke-linecap:round;-inkscape-stroke:hairline"
           id="rect61-0"
           width="4.1577382"
           height="4.1577382"
           x="73.932419"
           y="169.54202" />
        <rect
           style="vector-effect:non-scaling-stroke;fill:#5555ff;fill-opacity:1;stroke-width:0.264583;stroke-linecap:round;-inkscape-stroke:hairline"
           id="rect62-6"
           width="4.1577382"
           height="4.1577382"
           x="73.932419"
           y="174.65831" />
      </g>
    </g>
  </g>
  <g
     id="g64"
     transform="translate(-8.0644504,-106.1203)">
    <rect
       style="vector-effect:non-scaling-stroke;fill:#004ea6;fill-opacity:1;stroke-width:0.264583;stroke-linecap:round;-inkscape-stroke:hairline"
       id="rect1-3-0"
       width="4.1577382"
       height="4.1577382"
       x="47.398212"
       y="113.09048" />
    <rect
       style="vector-effect:non-scaling-stroke;fill:#006be4;fill-opacity:1;stroke-width:0.264583;stroke-linecap:round;-inkscape-stroke:hairline"
       id="rect2-6-6"
       width="4.1577382"
       height="4.1577382"
       x="47.398212"
       y="118.20678" />
    <rect
       style="vector-effect:non-scaling-stroke;fill:#004390;fill-opacity:1;stroke-width:0.264583;stroke-linecap:round;-inkscape-stroke:hairline"
       id="rect3-7-2"
       width="4.1577382"
       height="4.1577382"
       x="47.398212"
       y="123.32308" />
    <rect
       style="vector-effect:non-scaling-stroke;fill:#2f90ff;fill-opacity:1;stroke-width:0.264583;stroke-linecap:round;-inkscape-stroke:hairline"
       id="rect4-5-6"
       width="4.1577382"
       height="4.1577382"
       x="47.398212"
       y="128.43938" />
    <rect
       style="vector-effect:non-scaling-stroke;fill:#005ac0;fill-opacity:1;stroke-width:0.264583;stroke-linecap:round;-inkscape-stroke:hairline"
       id="rect5-3-1"
       width="4.1577382"
       height="4.1577382"
       x="47.398212"
       y="133.55566" />
    <rect
       style="vector-effect:non-scaling-stroke;fill:#3297ff;fill-opacity:1;stroke-width:0.264583;stroke-linecap:round;-inkscape-stroke:hairline"
       id="rect6-5-8"
       width="4.1577382"
       height="4.1577382"
       x="47.398212"
       y="138.67197" />
    <rect
       style="vector-effect:non-scaling-stroke;fill:#2fd0ff;fill-opacity:1;stroke-width:0.264583;stroke-linecap:round;-inkscape-stroke:hairline"
       id="rect7-6-7"
       width="4.1577382"
       height="4.1577382"
       x="47.398212"
       y="143.78827" />
    <rect
       style="vector-effect:non-scaling-stroke;fill:#d0f5ff;fill-opacity:1;stroke-width:0.264583;stroke-linecap:round;-inkscape-stroke:hairline"
       id="rect8-2-9"
       width="4.1577382"
       height="4.1577382"
       x="47.398212"
       y="148.90457" />
  </g>
  <rect
     style="fill:none;fill-opacity:1;stroke:#000000;stroke-width:0.529167;stroke-linecap:round;stroke-dasharray:none"
     id="rect70"
     width="57.830357"
     height="45.735119"
     x="5.877243"
     y="103.13924"
     ry="6.0554867" />
  <rect
     style="fill:none;fill-opacity:1;stroke:#000000;stroke-width:0.529167;stroke-linecap:round;stroke-dasharray:none"
     id="rect71"
     width="57.830357"
     height="45.735119"
     x="5.877243"
     y="4.0885358"
     ry="6.0554867" />
  <rect
     style="fill:none;fill-opacity:1;stroke:#000000;stroke-width:0.529167;stroke-linecap:round;stroke-dasharray:none"
     id="rect72"
     width="57.830357"
     height="45.735119"
     x="5.877243"
     y="53.613876"
     ry="6.0554867" />
  <path
     d="m 68.26145,43.188858 q 0.661813,0 0.997658,0.197556 0.340784,0.192617 0.340784,0.67663 0,0.31115 -0.172861,0.518584 -0.172862,0.202495 -0.498829,0.261762 v 0.02469 q 0.22225,0.03457 0.400051,0.128412 0.182739,0.09384 0.286456,0.2667 0.103717,0.172862 0.103717,0.44944 0,0.479073 -0.330907,0.740835 -0.325967,0.261762 -0.89394,0.261762 h -1.239664 v -3.526375 z m 0.0889,1.501426 q 0.454379,0 0.622302,-0.143228 0.167922,-0.148167 0.167922,-0.434623 0,-0.291396 -0.207433,-0.414868 -0.202495,-0.128411 -0.651935,-0.128411 h -0.58279 v 1.12113 z m -0.651934,0.370417 v 1.279175 h 0.711201 q 0.469196,0 0.651935,-0.182739 0.182739,-0.182739 0.182739,-0.479073 0,-0.276579 -0.192617,-0.444501 -0.187678,-0.172862 -0.676629,-0.172862 z m 3.709112,-1.037169 q 0.484012,0 0.71614,0.212373 0.232128,0.212373 0.232128,0.676629 v 1.802699 h -0.316089 l -0.08396,-0.375357 h -0.01975 q -0.172862,0.217312 -0.365479,0.321029 -0.187678,0.103717 -0.523523,0.103717 -0.36054,0 -0.597607,-0.187678 -0.237067,-0.192617 -0.237067,-0.597607 0,-0.395112 0.31115,-0.607485 0.311151,-0.217312 0.958147,-0.237067 l 0.44944,-0.01482 V 44.96192 q 0,-0.330906 -0.143228,-0.459317 -0.143228,-0.128412 -0.40499,-0.128412 -0.207434,0 -0.395112,0.06421 -0.187678,0.05927 -0.350662,0.138289 l -0.13335,-0.325967 q 0.172861,-0.09384 0.409929,-0.158045 0.237067,-0.06914 0.49389,-0.06914 z m 0.128411,1.412526 q -0.49389,0.01975 -0.686507,0.158045 -0.187678,0.138289 -0.187678,0.390173 0,0.22225 0.13335,0.325967 0.138289,0.103717 0.350662,0.103717 0.335845,0 0.558096,-0.182739 0.22225,-0.187679 0.22225,-0.572913 v -0.237067 z m 2.913955,-1.417465 q 0.474134,0 0.71614,0.232129 0.242007,0.227189 0.242007,0.740835 v 1.723676 H 74.978356 V 45.02119 q 0,-0.637118 -0.592668,-0.637118 -0.439562,0 -0.607484,0.246945 -0.167923,0.246945 -0.167923,0.711202 v 1.373014 h -0.434623 v -2.647251 h 0.350662 l 0.06421,0.36054 h 0.02469 q 0.128411,-0.207434 0.355601,-0.306212 0.227189,-0.103717 0.479073,-0.103717 z m 2.207689,0.903819 q 0,0.07902 -0.0099,0.207434 -0.0049,0.128411 -0.0099,0.22225 h 0.01976 q 0.02963,-0.03951 0.0889,-0.113594 0.05927,-0.07408 0.118534,-0.148167 0.06421,-0.07902 0.108656,-0.128412 l 0.844551,-0.893941 h 0.508707 l -1.071741,1.131009 1.145825,1.516242 h -0.523524 l -0.918635,-1.234725 -0.301273,0.261762 v 0.972963 h -0.429684 v -3.753564 h 0.429684 z m 4.825308,1.792821 h -0.424745 v -2.464511 q 0,-0.212373 0.0049,-0.340784 0.0049,-0.128412 0.01482,-0.266701 -0.07902,0.07902 -0.143229,0.13335 -0.06421,0.05433 -0.162983,0.13829 l -0.375357,0.306211 -0.227189,-0.291395 0.953208,-0.740835 h 0.360539 z"
     id="text72"
     style="font-size:4.9389px;line-height:1.1;font-family:'Noto Sans';-inkscape-font-specification:'Noto Sans';letter-spacing:0px;word-spacing:0px;stroke-width:0.264583"
     aria-label="Bank 1" />
  <path
     d="m 68.26145,92.714203 q 0.661813,0 0.997658,0.197556 0.340784,0.192617 0.340784,0.676629 0,0.311151 -0.172861,0.518585 -0.172862,0.202495 -0.498829,0.261762 v 0.02469 q 0.22225,0.03457 0.400051,0.128411 0.182739,0.09384 0.286456,0.266701 0.103717,0.172862 0.103717,0.44944 0,0.479073 -0.330907,0.740835 -0.325967,0.261762 -0.89394,0.261762 h -1.239664 v -3.526375 z m 0.0889,1.501426 q 0.454379,0 0.622302,-0.143228 0.167922,-0.148167 0.167922,-0.434624 0,-0.291395 -0.207433,-0.414867 -0.202495,-0.128412 -0.651935,-0.128412 h -0.58279 v 1.121131 z m -0.651934,0.370417 v 1.279175 h 0.711201 q 0.469196,0 0.651935,-0.182739 0.182739,-0.182739 0.182739,-0.479073 0,-0.276579 -0.192617,-0.444501 -0.187678,-0.172862 -0.676629,-0.172862 z m 3.709112,-1.037169 q 0.484012,0 0.71614,0.212373 0.232128,0.212373 0.232128,0.676629 v 1.802699 h -0.316089 l -0.08396,-0.375357 h -0.01975 q -0.172862,0.217312 -0.365479,0.321029 -0.187678,0.103717 -0.523523,0.103717 -0.36054,0 -0.597607,-0.187679 -0.237067,-0.192617 -0.237067,-0.597606 0,-0.395112 0.31115,-0.607485 0.311151,-0.217312 0.958147,-0.237067 l 0.44944,-0.01482 v -0.158045 q 0,-0.330906 -0.143228,-0.459317 -0.143228,-0.128412 -0.40499,-0.128412 -0.207434,0 -0.395112,0.06421 -0.187678,0.05927 -0.350662,0.138289 l -0.13335,-0.325967 q 0.172861,-0.09384 0.409929,-0.158045 0.237067,-0.06914 0.49389,-0.06914 z m 0.128411,1.412526 q -0.49389,0.01975 -0.686507,0.158044 -0.187678,0.13829 -0.187678,0.390173 0,0.222251 0.13335,0.325968 0.138289,0.103717 0.350662,0.103717 0.335845,0 0.558096,-0.18274 0.22225,-0.187678 0.22225,-0.572912 v -0.237067 z m 2.913955,-1.417465 q 0.474134,0 0.71614,0.232129 0.242007,0.227189 0.242007,0.740835 v 1.723676 h -0.429685 v -1.694043 q 0,-0.637118 -0.592668,-0.637118 -0.439562,0 -0.607484,0.246945 -0.167923,0.246945 -0.167923,0.711201 v 1.373015 h -0.434623 v -2.647251 h 0.350662 l 0.06421,0.36054 h 0.02469 q 0.128411,-0.207434 0.355601,-0.306212 0.227189,-0.103717 0.479073,-0.103717 z m 2.207689,0.903819 q 0,0.07902 -0.0099,0.207434 -0.0049,0.128411 -0.0099,0.22225 h 0.01976 q 0.02963,-0.03951 0.0889,-0.113594 0.05927,-0.07408 0.118534,-0.148167 0.06421,-0.07902 0.108656,-0.128412 l 0.844551,-0.893941 h 0.508707 l -1.071741,1.131008 1.145825,1.516243 h -0.523524 l -0.918635,-1.234725 -0.301273,0.261761 v 0.972964 h -0.429684 v -3.753564 h 0.429684 z m 5.640227,1.792821 h -2.331161 v -0.36054 l 0.923574,-0.933452 q 0.266701,-0.266701 0.44944,-0.474135 0.18274,-0.207433 0.276579,-0.404989 0.09384,-0.202495 0.09384,-0.439562 0,-0.291395 -0.172862,-0.439562 -0.172861,-0.153106 -0.44944,-0.153106 -0.256822,0 -0.454378,0.0889 -0.192618,0.0889 -0.395112,0.246945 l -0.23213,-0.291395 q 0.207434,-0.172862 0.474135,-0.291395 0.271639,-0.123473 0.607484,-0.123473 0.49389,0 0.780347,0.251884 0.286456,0.246945 0.286456,0.686507 0,0.276579 -0.113595,0.518585 -0.113595,0.242006 -0.31609,0.479073 -0.202494,0.232128 -0.474134,0.498829 l -0.735896,0.726018 v 0.01976 h 1.782943 z"
     id="text72-7"
     style="font-size:4.9389px;line-height:1.1;font-family:'Noto Sans';-inkscape-font-specification:'Noto Sans';letter-spacing:0px;word-spacing:0px;stroke-width:0.264583"
     aria-label="Bank 2" />
  <path
     d="m 68.26145,142.23956 q 0.661813,0 0.997658,0.19755 0.340784,0.19262 0.340784,0.67663 0,0.31115 -0.172861,0.51859 -0.172862,0.20249 -0.498829,0.26176 v 0.0247 q 0.22225,0.0346 0.400051,0.12841 0.182739,0.0938 0.286456,0.2667 0.103717,0.17287 0.103717,0.44944 0,0.47908 -0.330907,0.74084 -0.325967,0.26176 -0.89394,0.26176 h -1.239664 v -3.52637 z m 0.0889,1.50142 q 0.454379,0 0.622302,-0.14323 0.167922,-0.14816 0.167922,-0.43462 0,-0.2914 -0.207433,-0.41487 -0.202495,-0.12841 -0.651935,-0.12841 h -0.58279 v 1.12113 z m -0.651934,0.37042 v 1.27917 h 0.711201 q 0.469196,0 0.651935,-0.18274 0.182739,-0.18273 0.182739,-0.47907 0,-0.27658 -0.192617,-0.4445 -0.187678,-0.17286 -0.676629,-0.17286 z m 3.709112,-1.03717 q 0.484012,0 0.71614,0.21237 0.232128,0.21238 0.232128,0.67663 v 1.8027 h -0.316089 l -0.08396,-0.37536 h -0.01975 q -0.172862,0.21732 -0.365479,0.32103 -0.187678,0.10372 -0.523523,0.10372 -0.36054,0 -0.597607,-0.18768 -0.237067,-0.19262 -0.237067,-0.59761 0,-0.39511 0.31115,-0.60748 0.311151,-0.21731 0.958147,-0.23707 l 0.44944,-0.0148 v -0.15805 q 0,-0.33091 -0.143228,-0.45932 -0.143228,-0.12841 -0.40499,-0.12841 -0.207434,0 -0.395112,0.0642 -0.187678,0.0593 -0.350662,0.13829 l -0.13335,-0.32597 q 0.172861,-0.0938 0.409929,-0.15805 0.237067,-0.0691 0.49389,-0.0691 z m 0.128411,1.41253 q -0.49389,0.0197 -0.686507,0.15804 -0.187678,0.13829 -0.187678,0.39017 0,0.22225 0.13335,0.32597 0.138289,0.10372 0.350662,0.10372 0.335845,0 0.558096,-0.18274 0.22225,-0.18768 0.22225,-0.57291 v -0.23707 z m 2.913955,-1.41747 q 0.474134,0 0.71614,0.23213 0.242007,0.22719 0.242007,0.74083 v 1.72368 h -0.429685 v -1.69404 q 0,-0.63712 -0.592668,-0.63712 -0.439562,0 -0.607484,0.24694 -0.167923,0.24695 -0.167923,0.71121 v 1.37301 h -0.434623 v -2.64725 h 0.350662 l 0.06421,0.36054 h 0.02469 q 0.128411,-0.20743 0.355601,-0.30621 0.227189,-0.10372 0.479073,-0.10372 z m 2.207689,0.90382 q 0,0.079 -0.0099,0.20743 -0.0049,0.12841 -0.0099,0.22225 h 0.01976 q 0.02963,-0.0395 0.0889,-0.11359 0.05927,-0.0741 0.118534,-0.14817 0.06421,-0.079 0.108656,-0.12841 l 0.844551,-0.89394 h 0.508707 l -1.071741,1.13101 1.145825,1.51624 h -0.523524 l -0.918635,-1.23472 -0.301273,0.26176 v 0.97296 h -0.429684 v -3.75356 h 0.429684 z m 5.506877,-0.90876 q 0,0.3556 -0.197556,0.56798 -0.197556,0.20743 -0.533402,0.27657 v 0.0198 q 0.424746,0.0494 0.63218,0.2667 0.207433,0.21731 0.207433,0.56797 0,0.30622 -0.143228,0.54822 -0.143228,0.23707 -0.444501,0.37042 -0.296334,0.13335 -0.765529,0.13335 -0.276579,0 -0.513646,-0.0445 -0.237067,-0.0395 -0.454379,-0.14817 v -0.40499 q 0.222251,0.10866 0.479074,0.17286 0.256822,0.0593 0.49389,0.0593 0.474134,0 0.681568,-0.18274 0.212373,-0.18768 0.212373,-0.51364 0,-0.33091 -0.261762,-0.47414 -0.256823,-0.14817 -0.726018,-0.14817 h -0.340785 v -0.37041 h 0.345723 q 0.434624,0 0.656874,-0.18274 0.22719,-0.18274 0.22719,-0.48401 0,-0.25683 -0.172862,-0.39512 -0.172861,-0.14322 -0.469195,-0.14322 -0.286457,0 -0.488952,0.084 -0.202494,0.084 -0.40005,0.21237 l -0.217312,-0.29633 q 0.187678,-0.14817 0.464257,-0.25683 0.281517,-0.10865 0.637118,-0.10865 0.553156,0 0.819857,0.24694 0.27164,0.24695 0.27164,0.62724 z"
     id="text73"
     style="font-size:4.9389px;line-height:1.1;font-family:'Noto Sans';-inkscape-font-specification:'Noto Sans';letter-spacing:0px;word-spacing:0px;stroke-width:0.264583"
     aria-label="Bank 3" />
  <g
     inkscape:groupmode="layer"
     id="layer2"
     inkscape:label="text"
     style="display:none">
    <text
       xml:space="preserve"
       style="font-size:4.9389px;line-height:1.1;font-family:'Noto Sans';-inkscape-font-specification:'Noto Sans';letter-spacing:0px;word-spacing:0px;stroke-width:0.264583"
       x="66.774841"
       y="46.715233"
       id="text74"><tspan
         sodipodi:role="line"
         id="tspan74"
         style="stroke-width:0.264583"
         x="66.774841"
         y="46.715233">Bank 1</tspan></text>
    <text
       xml:space="preserve"
       style="font-size:4.9389px;line-height:1.1;font-family:'Noto Sans';-inkscape-font-specification:'Noto Sans';letter-spacing:0px;word-spacing:0px;stroke-width:0.264583"
       x="66.774841"
       y="96.240578"
       id="text75"><tspan
         sodipodi:role="line"
         id="tspan75"
         style="stroke-width:0.264583"
         x="66.774841"
         y="96.240578">Bank 2</tspan></text>
    <text
       xml:space="preserve"
       style="font-size:4.9389px;line-height:1.1;font-family:'Noto Sans';-inkscape-font-specification:'Noto Sans';letter-spacing:0px;word-spacing:0px;stroke-width:0.264583"
       x="66.774841"
       y="145.76593"
       id="text76"
       inkscape:label="text76"><tspan
         sodipodi:role="line"
         id="tspan76"
         style="stroke-width:0.264583"
         x="66.774841"
         y="145.76593">Bank 3</tspan></text>
  </g>
</svg>
